<svg xmlns="http://www.w3.org/2000/svg" viewBox="0 0 960 366" width="960" height="366" role="img" aria-labelledby="ttl dsc">
  <title id="ttl">1 回のセッションの形</title>
  <desc id="dsc">上段は順に呼ぶ 3 つの呼び出しです。await init、new BachGenerator、そして設定を渡す generator.generate。その結果は getMidi・getEvents・getGenerated・getProvenance・getDiagnostic・getInfo の 6 つのアクセサから、順序を問わず何度でも読めます。最後に generator.destroy が、そのインスタンスが確保した WASM メモリを解放します。</desc>

  <style>
    .bg    { fill:#f7f5f1 }
    .grp   { fill:#edeae4 }
    .chip  { fill:#ffffff; stroke:#d7d4cd }
    .card  { fill:#ffffff; stroke:#8a6a1f }
    .alt   { fill:#ffffff; stroke:#3f6b8a }
    .seam  { fill:none; stroke:#b8b4ac; stroke-dasharray:6 5 }
    .rule  { fill:none; stroke:#b8b4ac; stroke-width:1 }
    .ln    { fill:none; stroke:#8a6a1f; stroke-width:1.4 }
    .ln2   { fill:none; stroke:#3f6b8a; stroke-width:1.4 }
    .ah    { fill:#8a6a1f }
    .ah2   { fill:#3f6b8a }
    .fill1 { fill:#8a6a1f; opacity:.16 }
    .fill2 { fill:#3f6b8a; opacity:.16 }
    .warn  { fill:none; stroke:#a3401f; stroke-width:1.6 }
    .warnt { fill:#a3401f }
    text   { font-family:Inter,"Helvetica Neue","Hiragino Sans","Noto Sans JP",Arial,sans-serif; fill:#1f2328 }
    .h     { font-size:12.5px }
    .lbl   { font-size:11px; fill:#6e7781; letter-spacing:.06em }
    .s     { font-size:10.5px; fill:#6e7781 }
    .mono  { font-family:ui-monospace,SFMono-Regular,Menlo,Consolas,monospace; font-size:10.5px; fill:#8a6a1f }
    @media (prefers-color-scheme: dark) {
      .bg{fill:#0d1117} .grp{fill:#12171d}
      .chip{fill:#161b22;stroke:#30363d} .card{fill:#161b22;stroke:#d9b45c} .alt{fill:#161b22;stroke:#7fb3d5}
      .seam{stroke:#484f58} .rule{stroke:#484f58}
      .ln{stroke:#d9b45c} .ln2{stroke:#7fb3d5} .ah{fill:#d9b45c} .ah2{fill:#7fb3d5}
      .fill1{fill:#d9b45c} .fill2{fill:#7fb3d5}
      .warn{stroke:#e08a68} .warnt{fill:#e08a68} .mono{fill:#d9b45c}
      text{fill:#e6edf3} .lbl{fill:#8b949e} .s{fill:#8b949e}
    }
  </style>

  <defs>
    <marker id="a" markerUnits="userSpaceOnUse" markerWidth="9" markerHeight="9" refX="8" refY="4.5" orient="auto">
      <path class="ah" d="M0,0 L9,4.5 L0,9 z"/>
    </marker>
    <marker id="b" markerUnits="userSpaceOnUse" markerWidth="9" markerHeight="9" refX="8" refY="4.5" orient="auto">
      <path class="ah2" d="M0,0 L9,4.5 L0,9 z"/>
    </marker>
  </defs>

  <rect class="bg" x="0" y="0" width="960" height="366" rx="12"/>

  <rect class="card" x="65" y="56" width="250" height="64" rx="6"/>
  <text class="mono" x="77" y="78">await init()</text>
  <text class="s" x="77" y="97">WASM モジュールを読み込んで</text>
  <text class="s" x="77" y="111">初期化する。プロセスに 1 回だけ</text>

  <path class="ln" d="M 315 88 H 355" marker-end="url(#a)"/>

  <rect class="card" x="355" y="56" width="250" height="64" rx="6"/>
  <text class="mono" x="367" y="78">new BachGenerator()</text>
  <text class="s" x="367" y="97">WASM メモリ上にエンジンの</text>
  <text class="s" x="367" y="111">状態を確保する</text>

  <path class="ln" d="M 605 88 H 645" marker-end="url(#a)"/>

  <rect class="card" x="645" y="56" width="250" height="64" rx="6"/>
  <text class="mono" x="657" y="78">generator.generate(config)</text>
  <text class="s" x="657" y="97">7 ステップのパイプラインを走らせ、</text>
  <text class="s" x="657" y="111">結果をインスタンスに保持する</text>

  <path class="ln" d="M 770 120 V 142" marker-end="url(#a)"/>

  <rect class="grp" x="24" y="144" width="912" height="100" rx="8"/>
  <text class="lbl" x="38" y="164">結果を読む — 順序は自由、何度でも</text>

  <rect class="alt" x="38" y="172" width="136" height="54" rx="6"/>
  <text class="mono" x="50" y="190">getMidi()</text>
  <text class="s" x="50" y="207">標準 MIDI ファイルの</text>
  <text class="s" x="50" y="221">バイト列（出力調）</text>

  <rect class="alt" x="182" y="172" width="136" height="54" rx="6"/>
  <text class="mono" x="194" y="190">getEvents()</text>
  <text class="s" x="194" y="207">小節・トラック・由来</text>
  <text class="s" x="194" y="221">タグつきイベント</text>

  <rect class="alt" x="326" y="172" width="136" height="54" rx="6"/>
  <text class="mono" x="338" y="190">getGenerated()</text>
  <text class="s" x="338" y="207">記譜上の音符と</text>
  <text class="s" x="338" y="221">対位法監査データ</text>

  <rect class="alt" x="498" y="172" width="136" height="54" rx="6"/>
  <text class="mono" x="510" y="190">getProvenance()</text>
  <text class="s" x="510" y="207">音符ごとの出自と</text>
  <text class="s" x="510" y="221">規則ビットの記録</text>

  <rect class="alt" x="642" y="172" width="136" height="54" rx="6"/>
  <text class="mono" x="654" y="190">getDiagnostic()</text>
  <text class="s" x="654" y="207">生成失敗時の</text>
  <text class="s" x="654" y="221">検証エラー</text>

  <rect class="alt" x="786" y="172" width="136" height="54" rx="6"/>
  <text class="mono" x="798" y="190">getInfo()</text>
  <text class="s" x="798" y="207">解決後の設定と</text>
  <text class="s" x="798" y="221">実際に使ったシード</text>

  <path class="ln" d="M 480 244 V 264" marker-end="url(#a)"/>

  <rect class="card" x="350" y="266" width="260" height="48" rx="6"/>
  <text class="mono" x="362" y="286">generator.destroy()</text>
  <text class="s" x="362" y="303">確保した WASM メモリを解放する</text>

  <path class="seam" d="M 24 330 H 936"/>
  <text class="s" x="480" y="350" text-anchor="middle">1 つのインスタンスで何度でも生成できる。呼ぶたびに前の結果が置き換わる。destroy() を忘れると漏れるのは JavaScript ではなく WASM のメモリ。</text>
</svg>
